<?xml version="1.0" encoding="UTF-8"?>
<svg id="Layer_2" data-name="Layer 2" xmlns="http://www.w3.org/2000/svg" viewBox="0 0 505.3 294.46">
    <defs>
        <style>
            .cls-1 {
                fill: #000f1a;
            }
            @media (prefers-color-scheme: dark) {
                .cls-1 {
                    fill: white;
                }
            }
        </style>
    </defs>
    <g id="Layer_1-2" data-name="Layer 1">
        <g>
            <path class="cls-1"
                  d="m5.02,98.67l40.66,52.03c8.1,10.37,23.08,12.22,33.45,4.12,0,0,.01,0,.02-.01l75.76-59.18c10.38-8.1,25.35-6.26,33.46,4.1l39.76,50.9c8.1,10.37,23.08,12.21,33.45,4.11,0,0,.01,0,.02-.01l75.74-59.18c10.38-8.11,25.37-6.28,33.49,4.1,0,0,0,0,0,0l39.81,50.89c8.1,10.37,23.08,12.22,33.45,4.12,0,0,.01,0,.02-.01l52.03-40.63c10.38-8.11,12.22-23.1,4.13-33.49l-40.66-52.03c-8.11-10.37-23.09-12.2-33.46-4.1l-50.9,39.77c-10.38,8.1-25.35,6.26-33.46-4.11l-39.79-50.89c-8.1-10.37-23.07-12.22-33.45-4.12,0,0,0,0-.01.01l-75.76,59.18c-10.37,8.11-25.34,6.28-33.45-4.09,0,0,0,0-.01-.01L119.54,9.24c-8.1-10.37-23.07-12.22-33.45-4.12,0,0,0,0-.01.01L9.2,65.2c-10.39,8.09-12.26,23.07-4.18,33.46"/>
            <path class="cls-1"
                  d="m365.47,143.96c-8.09-10.38-23.07-12.23-33.44-4.14,0,0-.01,0-.02.01l-75.74,59.18c-10.38,8.11-25.37,6.28-33.48-4.1h0s-39.74-50.87-39.74-50.87c-8.11-10.38-23.1-12.23-33.49-4.13l-76.7,59.95c-10.37,8.1-12.22,23.07-4.12,33.45,0,0,0,0,.01.01l40.63,51.98c8.11,10.38,23.1,12.22,33.48,4.11,0,0,0,0,0,0l75.57-59.03c10.37-8.11,25.34-6.28,33.45,4.09,0,0,0,0,.01.01l39.6,50.7c8.11,10.37,23.09,12.2,33.46,4.1l76.9-60.07c10.37-8.12,12.21-23.1,4.1-33.49l-40.49-51.76Z"/>
        </g>
    </g>
</svg>